<svg width="183" height="27" viewBox="0 0 183 27" fill="none" xmlns="http://www.w3.org/2000/svg">
<path d="M183 3V23.9072H180.43L169.847 8.03283H169.661V23.9072H166.924V3H169.514L180.107 18.905H180.303V3H183Z" fill="black"/>
<path d="M121.04 9.95205H118.294C118.163 9.25106 117.928 8.63174 117.588 8.09409C117.255 7.55643 116.843 7.10385 116.352 6.73635C115.868 6.36884 115.329 6.0932 114.734 5.90945C114.139 5.71889 113.518 5.62361 112.87 5.62361C111.68 5.62361 110.611 5.93667 109.663 6.5628C108.715 7.18212 107.963 8.09749 107.407 9.30891C106.858 10.5135 106.583 11.9904 106.583 13.7394C106.583 15.4953 106.858 16.979 107.407 18.1904C107.963 19.395 108.715 20.307 109.663 20.9263C110.611 21.5456 111.677 21.8553 112.86 21.8553C113.514 21.8553 114.136 21.7634 114.724 21.5796C115.319 21.3891 115.858 21.1134 116.342 20.7527C116.833 20.3852 117.245 19.9361 117.578 19.4052C117.918 18.8676 118.157 18.2516 118.294 17.5574H121.04C120.87 18.6123 120.547 19.5651 120.069 20.4159C119.592 21.2666 118.991 21.9948 118.265 22.6005C117.545 23.2062 116.728 23.6724 115.813 23.9991C114.897 24.3189 113.91 24.4789 112.851 24.4789C111.124 24.4789 109.588 24.0467 108.241 23.1824C106.894 22.3112 105.835 21.076 105.063 19.4767C104.291 17.8705 103.906 15.9581 103.906 13.7394C103.906 11.5208 104.291 9.60836 105.063 8.00221C105.841 6.39606 106.904 5.16082 108.251 4.29649C109.598 3.43216 111.131 3 112.851 3C113.89 3 114.865 3.15653 115.773 3.4696C116.682 3.78266 117.5 4.23864 118.226 4.83755C118.958 5.43645 119.566 6.16466 120.05 7.02219C120.534 7.87971 120.864 8.85633 121.04 9.95205Z" fill="black"/>
<path d="M80.6694 5.48069V3H90.5265V5.48069H80.6694ZM80.6694 23.9072V21.4265H90.5265V23.9072H80.6694ZM86.9662 3V23.9072H84.2297V3H86.9662Z" fill="black"/>
<path d="M54.7898 3L59.7822 11.4323H59.9391L64.9315 3H68.1191L61.8321 13.4536L68.1387 23.9072H64.9413L59.9391 15.6076H59.7822L54.78 23.9072H51.5826L58.0265 13.4536L51.6022 3H54.7898Z" fill="black"/>
<path d="M26.0585 23.9072V3H38.4168V5.48069H28.795V12.1979H37.7793V14.6786H28.795V21.4265H38.5541V23.9072H26.0585Z" fill="black"/>
<path d="M0 23.9072V3H2.73647V21.4265H11.9561V23.9072H0Z" fill="black"/>
<path fill-rule="evenodd" clip-rule="evenodd" d="M130.797 13.7077C134.658 19.9545 139.211 22.7846 144.442 22.7846C149.672 22.7846 154.226 19.9545 158.086 13.7077C154.226 7.46083 149.672 4.63077 144.442 4.63077C139.211 4.63077 134.658 7.46083 130.797 13.7077ZM127.249 12.7737C131.643 5.15003 137.368 1 144.442 1C151.515 1 157.24 5.15003 161.635 12.7737C161.966 13.3486 161.966 14.0668 161.635 14.6417C157.24 22.2654 151.515 26.4154 144.442 26.4154C137.368 26.4154 131.643 22.2654 127.249 14.6417C126.917 14.0668 126.917 13.3486 127.249 12.7737ZM140.742 9.85668C141.723 8.83533 143.054 8.26154 144.442 8.26154C145.829 8.26154 147.16 8.83533 148.142 9.85668C149.123 10.878 149.674 12.2633 149.674 13.7077C149.674 15.1521 149.123 16.5374 148.142 17.5587C147.16 18.5801 145.829 19.1538 144.442 19.1538C143.054 19.1538 141.723 18.5801 140.742 17.5587C139.76 16.5374 139.209 15.1521 139.209 13.7077C139.209 12.2633 139.76 10.878 140.742 9.85668ZM144.442 11.8923C143.979 11.8923 143.536 12.0836 143.208 12.424C142.881 12.7645 142.698 13.2262 142.698 13.7077C142.698 14.1892 142.881 14.6509 143.208 14.9914C143.536 15.3318 143.979 15.5231 144.442 15.5231C144.904 15.5231 145.348 15.3318 145.675 14.9914C146.002 14.6509 146.186 14.1892 146.186 13.7077C146.186 13.2262 146.002 12.7645 145.675 12.424C145.348 12.0836 144.904 11.8923 144.442 11.8923Z" fill="#08C269"/>
<path d="M144.442 11.8923C143.979 11.8923 143.536 12.0836 143.208 12.424C142.881 12.7645 142.698 13.2262 142.698 13.7077C142.698 14.1892 142.881 14.6509 143.208 14.9914C143.536 15.3318 143.979 15.5231 144.442 15.5231C144.904 15.5231 145.348 15.3318 145.675 14.9914C146.002 14.6509 146.186 14.1892 146.186 13.7077C146.186 13.2262 146.002 12.7645 145.675 12.424C145.348 12.0836 144.904 11.8923 144.442 11.8923Z" fill="#08C269"/>
</svg>
