<svg width="200" height="22" viewBox="0 0 200 22" fill="none" xmlns="http://www.w3.org/2000/svg">
<path d="M185.201 17.9V0.439056H187.65L194.834 11.7828C194.99 12.025 195.19 12.3492 195.432 12.7555C195.674 13.1617 195.936 13.607 196.217 14.0914C196.498 14.568 196.768 15.0484 197.025 15.5328L196.803 15.8961C196.779 15.443 196.756 14.9352 196.732 14.3727C196.717 13.8102 196.705 13.2789 196.697 12.7789C196.69 12.2711 196.686 11.8883 196.686 11.6305V0.439056H198.807V17.9H196.334L189.947 7.82187C189.752 7.52499 189.506 7.13828 189.209 6.66171C188.92 6.17734 188.58 5.61093 188.19 4.96249C187.807 4.30624 187.377 3.57968 186.9 2.78281L187.17 2.29062C187.209 3.19687 187.24 4.00937 187.264 4.72812C187.287 5.43906 187.303 6.05624 187.311 6.57968C187.318 7.09531 187.322 7.50156 187.322 7.79843V17.9H185.201Z" fill="black"/>
<path d="M124.495 18.1695C122.901 18.1695 121.499 17.7906 120.288 17.0328C119.085 16.2672 118.147 15.2086 117.475 13.857C116.803 12.5055 116.467 10.9469 116.467 9.18124C116.467 7.39999 116.8 5.83359 117.464 4.48203C118.135 3.13046 119.077 2.07578 120.288 1.31796C121.499 0.552338 122.901 0.169525 124.495 0.169525C125.401 0.169525 126.253 0.306244 127.05 0.579681C127.846 0.845306 128.561 1.23593 129.194 1.75156C129.835 2.26718 130.366 2.88828 130.788 3.61484C131.21 4.33359 131.503 5.14999 131.667 6.06406H129.499C129.358 5.43906 129.135 4.88437 128.831 4.39999C128.526 3.90781 128.155 3.49374 127.717 3.15781C127.28 2.82187 126.788 2.57187 126.241 2.40781C125.694 2.23593 125.112 2.14999 124.495 2.14999C123.292 2.14999 122.249 2.44296 121.366 3.0289C120.483 3.61484 119.796 4.43515 119.303 5.48984C118.819 6.54453 118.577 7.77499 118.577 9.18124C118.577 10.5797 118.819 11.8062 119.303 12.8609C119.796 13.9078 120.483 14.7242 121.366 15.3102C122.249 15.8961 123.292 16.1891 124.495 16.1891C125.112 16.1891 125.694 16.107 126.241 15.943C126.788 15.7711 127.276 15.5211 127.706 15.193C128.143 14.857 128.514 14.4469 128.819 13.9625C129.132 13.4781 129.362 12.9234 129.51 12.2984H131.667C131.51 13.1969 131.217 14.0094 130.788 14.7359C130.366 15.4547 129.839 16.0719 129.206 16.5875C128.573 17.1031 127.854 17.4977 127.05 17.7711C126.253 18.0367 125.401 18.1695 124.495 18.1695Z" fill="black"/>
<path d="M90.7139 17.9V16.0133H93.3389V2.32578H90.7139V0.439056H98.085V2.32578H95.46V16.0133H98.085V17.9H90.7139Z" fill="black"/>
<path d="M58.1517 17.9L64.9486 8.17343V9.75546L58.5267 0.439056H60.976L63.5541 4.20078C63.8275 4.59921 64.0853 4.98593 64.3275 5.36093C64.5775 5.73593 64.8236 6.11093 65.0658 6.48593C65.3158 6.86093 65.5619 7.24374 65.8041 7.63437H65.4525C65.7025 7.24374 65.9486 6.86093 66.1908 6.48593C66.433 6.11093 66.683 5.73593 66.9408 5.36093C67.1986 4.98593 67.4642 4.59921 67.7377 4.20078L70.351 0.439056H72.7533L66.3314 9.66171V8.0914L73.0697 17.9H70.6205L67.5267 13.4117C67.2689 13.0367 67.0189 12.6734 66.7767 12.3219C66.5424 11.9703 66.308 11.6187 66.0736 11.2672C65.847 10.9078 65.6166 10.5445 65.3822 10.1773H65.851C65.6166 10.5445 65.3822 10.9039 65.1478 11.2555C64.9135 11.607 64.6752 11.9586 64.433 12.3102C64.1908 12.6617 63.9408 13.0289 63.683 13.4117L60.5541 17.9H58.1517Z" fill="black"/>
<path d="M29.2809 17.9V0.439056H40.5309V2.32578H31.402V8.03281H39.863V9.91953H31.402V16.0133H40.5427V17.9H29.2809Z" fill="black"/>
<path d="M0 17.9V0.439056H2.12109V16.0133H10.4883V17.9H0Z" fill="black"/>
<path fill-rule="evenodd" clip-rule="evenodd" d="M145.404 8.00799C145.897 7.56467 146.656 7.60465 147.099 8.09729C150.071 11.3993 153.746 13.0333 158.207 13.0333C162.668 13.0333 166.344 11.3993 169.315 8.09729C169.758 7.60465 170.517 7.56467 171.01 8.00799C171.502 8.45131 171.542 9.21005 171.099 9.70269C170.283 10.6096 169.416 11.4095 168.499 12.1019L171.209 16.207C171.574 16.7602 171.421 17.5045 170.868 17.8696C170.315 18.2346 169.571 18.0821 169.205 17.529L166.485 13.407C165.332 14.0389 164.113 14.5234 162.828 14.86L163.398 19.4178C163.48 20.0754 163.013 20.6752 162.356 20.7574C161.698 20.8396 161.099 20.3731 161.016 19.7155L160.465 15.3037C159.731 15.3901 158.978 15.4333 158.207 15.4333C157.436 15.4333 156.683 15.3901 155.949 15.3037L155.398 19.7155C155.316 20.3731 154.716 20.8396 154.058 20.7574C153.401 20.6752 152.934 20.0754 153.016 19.4178L153.586 14.86C152.305 14.5243 151.088 14.0414 149.938 13.4121L147.21 17.5595C146.845 18.1132 146.101 18.2668 145.547 17.9025C144.994 17.5383 144.84 16.7941 145.205 16.2405L147.923 12.1083C147.003 11.4144 146.134 10.6124 145.315 9.70269C144.872 9.21005 144.912 8.45131 145.404 8.00799Z" fill="#08C269"/>
</svg>
