<svg width="200" height="22" viewBox="0 0 200 22" fill="none" xmlns="http://www.w3.org/2000/svg">
<path d="M185.201 17.901V0.440027H187.65L194.834 11.7838C194.99 12.026 195.19 12.3502 195.432 12.7564C195.674 13.1627 195.936 13.608 196.217 14.0924C196.498 14.5689 196.768 15.0494 197.025 15.5338L196.803 15.8971C196.779 15.4439 196.756 14.9361 196.732 14.3736C196.717 13.8111 196.705 13.2799 196.697 12.7799C196.69 12.2721 196.686 11.8892 196.686 11.6314V0.440027H198.807V17.901H196.334L189.947 7.82284C189.752 7.52596 189.506 7.13925 189.209 6.66268C188.92 6.17831 188.58 5.6119 188.19 4.96346C187.807 4.30721 187.377 3.58065 186.9 2.78378L187.17 2.29159C187.209 3.19784 187.24 4.01034 187.264 4.72909C187.287 5.44003 187.303 6.05721 187.311 6.58065C187.318 7.09628 187.322 7.50253 187.322 7.7994V17.901H185.201Z" fill="black"/>
<path d="M124.495 18.17C122.901 18.17 121.499 17.7911 120.288 17.0333C119.085 16.2677 118.147 15.2091 117.475 13.8575C116.803 12.506 116.468 10.9474 116.468 9.18175C116.468 7.4005 116.8 5.83409 117.464 4.48253C118.135 3.13096 119.077 2.07628 120.288 1.31846C121.499 0.552839 122.901 0.170027 124.495 0.170027C125.401 0.170027 126.253 0.306746 127.05 0.580183C127.846 0.845808 128.561 1.23643 129.194 1.75206C129.835 2.26768 130.366 2.88878 130.788 3.61534C131.21 4.33409 131.503 5.1505 131.667 6.06456H129.499C129.358 5.43956 129.135 4.88487 128.831 4.4005C128.526 3.90831 128.155 3.49425 127.718 3.15831C127.28 2.82237 126.788 2.57237 126.241 2.40831C125.694 2.23643 125.112 2.1505 124.495 2.1505C123.292 2.1505 122.249 2.44346 121.366 3.0294C120.483 3.61534 119.796 4.43565 119.303 5.49034C118.819 6.54503 118.577 7.7755 118.577 9.18175C118.577 10.5802 118.819 11.8067 119.303 12.8614C119.796 13.9083 120.483 14.7247 121.366 15.3107C122.249 15.8966 123.292 16.1896 124.495 16.1896C125.112 16.1896 125.694 16.1075 126.241 15.9435C126.788 15.7716 127.276 15.5216 127.706 15.1935C128.143 14.8575 128.514 14.4474 128.819 13.963C129.132 13.4786 129.362 12.9239 129.51 12.2989H131.667C131.51 13.1974 131.218 14.0099 130.788 14.7364C130.366 15.4552 129.839 16.0724 129.206 16.588C128.573 17.1036 127.854 17.4982 127.05 17.7716C126.253 18.0372 125.401 18.17 124.495 18.17Z" fill="black"/>
<path d="M90.7139 17.901V16.0142H93.3389V2.32675H90.7139V0.440027H98.085V2.32675H95.46V16.0142H98.085V17.901H90.7139Z" fill="black"/>
<path d="M58.1517 17.901L64.9486 8.1744V9.75643L58.5267 0.440027H60.976L63.5541 4.20175C63.8275 4.60018 64.0853 4.9869 64.3275 5.3619C64.5775 5.7369 64.8236 6.1119 65.0658 6.4869C65.3158 6.8619 65.5619 7.24471 65.8041 7.63534H65.4525C65.7025 7.24471 65.9486 6.8619 66.1908 6.4869C66.433 6.1119 66.683 5.7369 66.9408 5.3619C67.1986 4.9869 67.4642 4.60018 67.7377 4.20175L70.351 0.440027H72.7533L66.3314 9.66268V8.09237L73.0697 17.901H70.6205L67.5267 13.4127C67.2689 13.0377 67.0189 12.6744 66.7767 12.3228C66.5424 11.9713 66.308 11.6197 66.0736 11.2682C65.847 10.9088 65.6166 10.5455 65.3822 10.1783H65.851C65.6166 10.5455 65.3822 10.9049 65.1478 11.2564C64.9135 11.608 64.6752 11.9596 64.433 12.3111C64.1908 12.6627 63.9408 13.0299 63.683 13.4127L60.5541 17.901H58.1517Z" fill="black"/>
<path d="M29.2809 17.901V0.440027H40.5309V2.32675H31.402V8.03378H39.863V9.9205H31.402V16.0142H40.5427V17.901H29.2809Z" fill="black"/>
<path d="M0 17.901V0.440027H2.12109V16.0142H10.4883V17.901H0Z" fill="black"/>
<path fill-rule="evenodd" clip-rule="evenodd" d="M147.57 10.1C150.538 14.736 154.052 16.85 158.1 16.85C162.148 16.85 165.662 14.736 168.63 10.1C165.662 5.46401 162.148 3.35 158.1 3.35C154.052 3.35 150.538 5.46401 147.57 10.1ZM145.028 9.45688C148.378 3.87421 152.731 0.850002 158.1 0.850002C163.469 0.850002 167.822 3.87421 171.172 9.45688C171.409 9.85274 171.409 10.3473 171.172 10.7431C167.822 16.3258 163.469 19.35 158.1 19.35C152.731 19.35 148.378 16.3258 145.028 10.7431C144.791 10.3473 144.791 9.85274 145.028 9.45688ZM155.33 7.3305C156.065 6.59598 157.061 6.18334 158.1 6.18334C159.139 6.18334 160.135 6.59598 160.869 7.3305C161.604 8.06502 162.017 9.06124 162.017 10.1C162.017 11.1388 161.604 12.135 160.869 12.8695C160.135 13.604 159.139 14.0167 158.1 14.0167C157.061 14.0167 156.065 13.604 155.33 12.8695C154.596 12.135 154.183 11.1388 154.183 10.1C154.183 9.06124 154.596 8.06502 155.33 7.3305ZM158.1 8.68334C157.724 8.68334 157.364 8.83259 157.098 9.09827C156.833 9.36395 156.683 9.72428 156.683 10.1C156.683 10.4757 156.833 10.8361 157.098 11.1017C157.364 11.3674 157.724 11.5167 158.1 11.5167C158.476 11.5167 158.836 11.3674 159.102 11.1017C159.367 10.8361 159.517 10.4757 159.517 10.1C159.517 9.72428 159.367 9.36395 159.102 9.09827C158.836 8.83259 158.476 8.68334 158.1 8.68334Z" fill="#08C269"/>
</svg>
